<svg xmlns="http://www.w3.org/2000/svg" viewBox="0 0 100 100">
  <defs>
    <linearGradient id="grad1" x1="0%" y1="0%" x2="100%" y2="100%">
      <stop offset="0%" style="stop-color:#9333ea;stop-opacity:1" />
      <stop offset="100%" style="stop-color:#2563eb;stop-opacity:1" />
    </linearGradient>
  </defs>

  <!-- Genie lamp body -->
  <ellipse cx="50" cy="70" rx="30" ry="15" fill="url(#grad1)"/>
  <path d="M 35 70 Q 35 45 50 35 Q 65 45 65 70" fill="url(#grad1)"/>

  <!-- Lamp spout -->
  <path d="M 65 50 Q 75 48 78 45 Q 80 43 78 40 L 70 42" fill="url(#grad1)"/>

  <!-- Magic sparkles -->
  <circle cx="50" cy="25" r="3" fill="#fbbf24"/>
  <circle cx="40" cy="30" r="2" fill="#fbbf24"/>
  <circle cx="60" cy="28" r="2.5" fill="#fbbf24"/>
  <circle cx="35" cy="20" r="1.5" fill="#fbbf24"/>
  <circle cx="65" cy="22" r="2" fill="#fbbf24"/>

  <!-- Star sparkle -->
  <path d="M 50 15 L 51 18 L 54 18 L 52 20 L 53 23 L 50 21 L 47 23 L 48 20 L 46 18 L 49 18 Z" fill="#fde047"/>
</svg>
